<svg width="24" height="24" viewBox="0 0 24 24" fill="none" xmlns="http://www.w3.org/2000/svg">
<g clip-path="url(#clip0_1582_3034)">
<path fill-rule="evenodd" clip-rule="evenodd" d="M11.9777 2.57143C11.2611 2.55849 10.5489 2.68699 9.88202 2.94959C9.21511 3.21219 8.60653 3.60372 8.09111 4.10179C7.57569 4.59985 7.16355 5.19467 6.87827 5.8522C6.59299 6.50973 6.44018 7.21706 6.42857 7.93371V15.4286C6.42857 15.8832 6.24796 16.3193 5.92647 16.6408C5.60498 16.9622 5.16894 17.1429 4.71429 17.1429H2.57143C1.88944 17.1429 1.23539 16.8719 0.753154 16.3897C0.270918 15.9075 0 15.2534 0 14.5714L0 11.1429C0 10.4609 0.270918 9.80682 0.753154 9.32458C1.23539 8.84235 1.88944 8.57143 2.57143 8.57143H3.85714V7.90286C3.87278 6.84924 4.09583 5.80903 4.51353 4.84163C4.93123 3.87423 5.53542 2.99859 6.29158 2.26472C7.04774 1.53085 7.94105 0.953123 8.92052 0.564539C9.89998 0.175954 10.9464 -0.0158779 12 -8.89064e-07C13.0536 -0.0158779 14.1 0.175954 15.0795 0.564539C16.0589 0.953123 16.9523 1.53085 17.7084 2.26472C18.4646 2.99859 19.0688 3.87423 19.4865 4.84163C19.9042 5.80903 20.1272 6.84924 20.1429 7.90286V8.57143H21.4286C22.1106 8.57143 22.7646 8.84235 23.2468 9.32458C23.7291 9.80682 24 10.4609 24 11.1429V14.5714C24 15.2534 23.7291 15.9075 23.2468 16.3897C22.7646 16.8719 22.1106 17.1429 21.4286 17.1429H20.1429V18C20.1431 19.1584 19.7168 20.2764 18.9452 21.1406C18.1737 22.0047 17.1111 22.5546 15.96 22.6851C15.7365 23.0842 15.4105 23.4165 15.0158 23.6476C14.621 23.8788 14.1717 24.0004 13.7143 24H11.1429C10.4609 24 9.80682 23.7291 9.32458 23.2468C8.84235 22.7646 8.57143 22.1106 8.57143 21.4286C8.57143 20.7466 8.84235 20.0925 9.32458 19.6103C9.80682 19.1281 10.4609 18.8571 11.1429 18.8571H13.7143C14.6434 18.8571 15.4577 19.3491 15.9086 20.088C16.3811 19.9794 16.8028 19.7138 17.1048 19.3345C17.4068 18.9553 17.5713 18.4848 17.5714 18V7.932C17.5597 7.21166 17.4052 6.50079 17.1171 5.84049C16.8289 5.18019 16.4127 4.58356 15.8926 4.08509C15.3724 3.58662 14.7586 3.19619 14.0867 2.93638C13.4147 2.67657 12.6979 2.55253 11.9777 2.57143Z" fill="#909090"/>
</g>
<defs>
<clipPath id="clip0_1582_3034">
<rect width="24" height="24" fill="white"/>
</clipPath>
</defs>
</svg>
