<svg width="128" height="128" viewBox="0 0 128 128" fill="none" xmlns="http://www.w3.org/2000/svg">
<g clip-path="url(#clip0_771_10943)">
<path d="M124.154 64.537H125.75C126.854 64.537 127.75 63.6415 127.75 62.537V41.9442C127.75 38.9097 125.281 36.4407 122.246 36.4407H112.422V28.8057C112.422 25.7712 109.953 23.3022 106.919 23.3022H32.5667C32.566 23.3022 32.5653 23.3022 32.5643 23.3022C32.5633 23.3022 32.5627 23.3022 32.5617 23.3022H5.7535C2.719 23.3025 0.25 25.7712 0.25 28.806V49.3987C0.25 50.5032 1.1455 51.3987 2.25 51.3987H3.84575C7.17175 51.3987 9.87775 54.1047 9.87775 57.431C9.87775 60.7572 7.17175 63.463 3.84575 63.463H2.25C1.1455 63.463 0.25 64.3585 0.25 65.463V86.0557C0.25 89.0905 2.71875 91.5592 5.7535 91.5592H15.578V99.194C15.578 102.229 18.0467 104.697 21.0815 104.697H122.246C125.281 104.697 127.75 102.229 127.75 99.194V78.6012C127.75 77.4967 126.854 76.6012 125.75 76.6012H124.154C120.828 76.6012 118.122 73.8952 118.122 70.5692C118.122 67.2432 120.828 64.537 124.154 64.537ZM4.25 86.0557V67.455C9.595 67.242 13.8778 62.8272 13.8778 57.431C13.8778 52.0347 9.595 47.6197 4.25 47.4067V28.806C4.25 27.977 4.9245 27.3025 5.7535 27.3025H30.5643V30.455C30.5643 31.5595 31.4598 32.455 32.5643 32.455C33.6688 32.455 34.5643 31.5595 34.5643 30.455V27.3025H106.919C107.748 27.3025 108.422 27.977 108.422 28.806V47.4067C103.077 47.6197 98.7943 52.0345 98.7943 57.431C98.7943 62.8275 103.077 67.2422 108.422 67.455V86.0557C108.422 86.8847 107.748 87.5592 106.919 87.5592H79.272V79.2557C85.3083 76.3088 89.564 69.6702 89.564 62.9487C89.564 56.4312 86.502 50.9602 80.9423 47.5435C80.325 47.164 79.551 47.1482 78.919 47.5017C78.2868 47.8552 77.895 48.523 77.895 49.2472V61.4492L71.493 65.1455L65.091 61.4492V49.2475C65.091 48.5232 64.6995 47.8555 64.067 47.502C63.4347 47.1485 62.6608 47.1642 62.0438 47.5437C56.484 50.9605 53.4222 56.4315 53.4222 62.949C53.4222 69.6702 57.6787 76.309 63.7142 79.256V87.5595H34.5643V84.407C34.5643 83.3025 33.6688 82.407 32.5643 82.407C31.4598 82.407 30.5643 83.3025 30.5643 84.407V87.5595H5.7535C4.9245 87.5592 4.25 86.885 4.25 86.0557ZM66.4337 76.0822C61.2122 74.0692 57.4225 68.546 57.4225 62.9487C57.4225 58.572 59.076 55.5057 61.0913 53.3945V62.6042C61.0913 63.3187 61.4725 63.979 62.0913 64.3362L70.4932 69.1872C71.1123 69.5445 71.8742 69.5445 72.4932 69.1872L80.8952 64.3362C81.514 63.979 81.8952 63.3187 81.8952 62.6042V53.3945C83.9105 55.5057 85.564 58.572 85.564 62.9487C85.564 68.5457 81.7742 74.069 76.5525 76.0822C75.781 76.3797 75.272 77.1215 75.272 77.9482V87.5592H67.7145V77.9482C67.7142 77.1212 67.2052 76.3797 66.4337 76.0822ZM123.75 80.5932V99.194C123.75 100.023 123.076 100.697 122.246 100.697H21.0815C20.2525 100.697 19.578 100.023 19.578 99.194V91.5592H106.918C109.953 91.5592 112.422 89.0905 112.422 86.0557V65.463C112.422 64.3585 111.526 63.463 110.422 63.463H108.826C105.5 63.463 102.794 60.757 102.794 57.431C102.794 54.105 105.5 51.3987 108.826 51.3987H110.422C111.526 51.3987 112.422 50.5032 112.422 49.3987V40.441H122.246C123.075 40.441 123.75 41.1155 123.75 41.9445V60.5452C118.405 60.7582 114.122 65.173 114.122 70.5692C114.122 75.9655 118.405 80.3802 123.75 80.5932ZM22.2507 38.752H12.5635C11.459 38.752 10.5635 37.8565 10.5635 36.752C10.5635 35.6475 11.459 34.752 12.5635 34.752H22.2507C23.3552 34.752 24.2507 35.6475 24.2507 36.752C24.2507 37.8565 23.3552 38.752 22.2507 38.752ZM47.7798 44.8452H95.2065C96.311 44.8452 97.2065 43.9497 97.2065 42.8452V33.2175C97.2065 32.113 96.311 31.2175 95.2065 31.2175H47.7798C46.6753 31.2175 45.7798 32.113 45.7798 33.2175V42.8455C45.7798 43.95 46.675 44.8452 47.7798 44.8452ZM49.7798 35.2175H93.2065V40.8455H49.7798V35.2175ZM22.2507 78.1427H12.5635C11.459 78.1427 10.5635 77.2472 10.5635 76.1427C10.5635 75.0382 11.459 74.1427 12.5635 74.1427H22.2507C23.3552 74.1427 24.2507 75.0382 24.2507 76.1427C24.2507 77.2472 23.3552 78.1427 22.2507 78.1427ZM10.5635 68.6842C10.5635 67.5797 11.459 66.6842 12.5635 66.6842H22.2507C23.3552 66.6842 24.2507 67.5797 24.2507 68.6842C24.2507 69.7887 23.3552 70.6842 22.2507 70.6842H12.5635C11.459 70.6842 10.5635 69.7887 10.5635 68.6842ZM30.5643 42.276V37.1235C30.5643 36.019 31.4598 35.1235 32.5643 35.1235C33.6688 35.1235 34.5643 36.019 34.5643 37.1235V42.276C34.5643 43.3805 33.6688 44.276 32.5643 44.276C31.4598 44.276 30.5643 43.3805 30.5643 42.276ZM30.5643 54.0967V48.9442C30.5643 47.8397 31.4598 46.9442 32.5643 46.9442C33.6688 46.9442 34.5643 47.8397 34.5643 48.9442V54.0967C34.5643 55.2012 33.6688 56.0967 32.5643 56.0967C31.4598 56.0967 30.5643 55.2012 30.5643 54.0967ZM30.5643 65.9175V60.765C30.5643 59.6605 31.4598 58.765 32.5643 58.765C33.6688 58.765 34.5643 59.6605 34.5643 60.765V65.9175C34.5643 67.022 33.6688 67.9175 32.5643 67.9175C31.4598 67.9175 30.5643 67.0223 30.5643 65.9175ZM30.5643 77.7385V72.586C30.5643 71.4815 31.4598 70.586 32.5643 70.586C33.6688 70.586 34.5643 71.4815 34.5643 72.586V77.7385C34.5643 78.843 33.6688 79.7385 32.5643 79.7385C31.4598 79.7385 30.5643 78.843 30.5643 77.7385Z" fill="#111111"/>
</g>
<defs>
<clipPath id="clip0_771_10943">
<rect width="128" height="128" fill="white"/>
</clipPath>
</defs>
</svg>
